<svg width="484" height="484" viewBox="0 0 484 484" fill="none" xmlns="http://www.w3.org/2000/svg">
<rect width="484" height="484" fill="black"/>
<g transform="translate(30 156) scale(0.356)">
<path d="M272.789 0.111976L126.621 0.111908L129 334.135C116.6 345.735 98.5 351.627 91 353.123H47.7158L0 477.135C117.5 506.135 193 438.135 248.5 367.635L533.334 0.0561292H389L259.852 184.142L272.789 0.111976Z" fill="white"/>
<path d="M862.5 0.5C862.5 0.5 653.006 0.031799 551.5 0L503 125.5H629.5L458.5 241.5L415.5 352.5H734L783 226.5H648.5L820.5 110.5L862.5 0.5Z" fill="white"/>
<path d="M937.511 243.647L800.011 259.647C785.511 356.147 869 378.147 959.511 369.147C1053.24 359.827 1124.71 312.647 1145.51 231.147C1164.01 158.647 1077.01 140.147 1022.01 129.647C1008.01 127.647 1006.82 111.57 1028.51 106.147C1052.51 100.147 1055.68 117.98 1052.51 127.647L1188.51 112.147C1205.01 21.1469 1129.01 -9.85303 1029.01 2.6469C931.2 14.8733 864.511 81.6469 856.011 147.647C849.211 200.447 914.178 225.314 947.511 231.147C953.011 232.314 967.011 235.247 979.011 237.647C991.011 240.047 991.678 245.314 990.511 247.647C989.178 253.48 981.111 265.447 959.511 266.647C937.911 267.847 935.845 251.814 937.511 243.647Z" fill="white"/>
</g>
</svg>
